<svg width="90" height="33" viewBox="0 0 90 33" fill="none" xmlns="http://www.w3.org/2000/svg">
<g clip-path="url(#clip0_192_9652)">
<path d="M9.31996 25.8541C6.75235 25.8541 4.62259 24.9997 2.92219 23.2865C1.22178 21.5776 0.371582 19.4606 0.371582 16.9398C0.371582 14.4189 1.22178 12.3019 2.92219 10.593C4.62259 8.8841 6.75235 8.02539 9.31996 8.02539C10.9396 8.02539 12.4317 8.42073 13.792 9.20717C15.0078 9.90859 15.9728 10.8183 16.6955 11.9321C16.84 12.1574 16.7592 12.4592 16.5254 12.591L12.9376 14.6697C12.7208 14.7973 12.4402 14.7292 12.3042 14.5167C11.6665 13.5177 10.6505 13.0203 9.24769 13.0203C8.14668 13.0203 7.23271 13.3859 6.51429 14.1171C5.79587 14.8483 5.43454 15.7877 5.43454 16.9355C5.43454 18.0833 5.79587 19.0228 6.51429 19.7539C7.23271 20.4851 8.14668 20.8507 9.24769 20.8507C10.6675 20.8507 11.6878 20.3533 12.3084 19.3586C12.4445 19.1418 12.725 19.0738 12.9418 19.2013L16.5254 21.2503C16.755 21.3821 16.84 21.6839 16.6997 21.9092C15.977 23.0442 15.0163 23.9624 13.809 24.6638C12.4572 25.4503 10.9609 25.8456 9.31996 25.8456V25.8541Z" fill="#23211F"/>
<path d="M17.894 24.9063V1.21537C17.894 0.951808 18.1066 0.739258 18.3702 0.739258H22.4809C22.7444 0.739258 22.957 0.951808 22.957 1.21537V24.9063C22.957 25.1698 22.7444 25.3824 22.4809 25.3824H18.3702C18.1066 25.3824 17.894 25.1698 17.894 24.9063Z" fill="#23211F"/>
<path d="M30.2646 6.12597C29.6695 6.72112 28.9553 7.01869 28.1221 7.01869C27.2889 7.01869 26.5748 6.72112 25.9796 6.12597C25.3845 5.53083 25.0869 4.81666 25.0869 3.98346C25.0869 3.15027 25.3845 2.4361 25.9796 1.84095C26.5748 1.24581 27.2889 0.948242 28.1221 0.948242C28.9553 0.948242 29.6695 1.24581 30.2646 1.84095C30.8598 2.4361 31.1574 3.15027 31.1574 3.98346C31.1574 4.81666 30.8598 5.53083 30.2646 6.12597ZM25.5885 24.9069V8.98265C25.5885 8.71909 25.8011 8.50654 26.0646 8.50654H30.1754C30.4389 8.50654 30.6515 8.71909 30.6515 8.98265V24.9112C30.6515 25.1748 30.4389 25.3873 30.1754 25.3873H26.0646C25.8011 25.3873 25.5885 25.1748 25.5885 24.9112V24.9069Z" fill="#23211F"/>
<path d="M43.379 8.0293C45.6065 8.0293 47.5067 8.89225 49.0839 10.6139C50.661 12.3356 51.4474 14.4441 51.4474 16.9437C51.4474 19.4433 50.661 21.5518 49.0839 23.2734C47.5067 24.9951 45.6065 25.858 43.379 25.858C41.1515 25.858 39.5403 25.1736 38.3501 23.8006V31.6649C38.3501 31.9285 38.1375 32.141 37.874 32.141H33.7632C33.4997 32.141 33.2871 31.9285 33.2871 31.6649V8.98152C33.2871 8.71796 33.4997 8.50541 33.7632 8.50541H37.874C38.1375 8.50541 38.3501 8.71796 38.3501 8.98152V10.091C39.5446 8.71796 41.2195 8.03355 43.379 8.03355V8.0293ZM39.4808 19.9491C40.2333 20.6931 41.1982 21.0629 42.3673 21.0629C43.5363 21.0629 44.5013 20.6931 45.2537 19.9491C46.0061 19.2052 46.3845 18.2062 46.3845 16.9437C46.3845 15.6811 46.0061 14.6821 45.2537 13.9382C44.5013 13.1943 43.5363 12.8244 42.3673 12.8244C41.1982 12.8244 40.2333 13.1943 39.4808 13.9382C38.7284 14.6821 38.3501 15.6811 38.3501 16.9437C38.3501 18.2062 38.7284 19.2052 39.4808 19.9491Z" fill="#23211F"/>
<path d="M81.9356 8.0293C84.1632 8.0293 86.0634 8.89225 87.6405 10.6139C89.2176 12.3356 90.0041 14.4441 90.0041 16.9437C90.0041 19.4433 89.2176 21.5518 87.6405 23.2734C86.0634 24.9951 84.1632 25.858 81.9356 25.858C79.7081 25.858 78.097 25.1736 76.9067 23.8006V31.6649C76.9067 31.9285 76.6942 32.141 76.4306 32.141H72.3199C72.0563 32.141 71.8438 31.9285 71.8438 31.6649V8.98152C71.8438 8.71796 72.0563 8.50541 72.3199 8.50541H76.4306C76.6942 8.50541 76.9067 8.71796 76.9067 8.98152V10.091C78.1012 8.71796 79.7761 8.03355 81.9356 8.03355V8.0293ZM78.0332 19.9491C78.7857 20.6931 79.7506 21.0629 80.9197 21.0629C82.0887 21.0629 83.0537 20.6931 83.8061 19.9491C84.5585 19.2052 84.9369 18.2062 84.9369 16.9437C84.9369 15.6811 84.5585 14.6821 83.8061 13.9382C83.0537 13.1943 82.0887 12.8244 80.9197 12.8244C79.7506 12.8244 78.7857 13.1943 78.0332 13.9382C77.2808 14.6821 76.9025 15.6811 76.9025 16.9437C76.9025 18.2062 77.2808 19.2052 78.0332 19.9491Z" fill="#23211F"/>
<path d="M61.6458 26.2241C58.8402 26.2241 57.1313 25.0933 56.1918 24.1453C54.1003 22.0326 54.0663 19.1844 54.0705 18.8656V8.98622C54.0705 8.72266 54.2831 8.51011 54.5467 8.51011H58.6956C58.9592 8.51011 59.1718 8.72266 59.1718 8.98622V18.8911C59.2058 20.3704 60.0347 21.1271 61.6458 21.1271C63.257 21.1271 64.0859 20.3704 64.1199 18.8783V8.98197C64.1199 8.71841 64.3325 8.50586 64.596 8.50586H68.745C69.0086 8.50586 69.2211 8.71841 69.2211 8.98197V18.8868C69.2211 19.1801 69.1914 22.0326 67.0999 24.1411C66.1604 25.0891 64.4515 26.2198 61.6458 26.2198V26.2241Z" fill="#23211F"/>
</g>
<defs>
<clipPath id="clip0_192_9652">
<rect width="89.6326" height="31.398" fill="white" transform="translate(0.371582 0.739258)"/>
</clipPath>
</defs>
</svg>
