<svg width="20" height="21" viewBox="0 0 20 21" fill="none" xmlns="http://www.w3.org/2000/svg">
<path d="M17.978 5.69093L12.978 1.66952C11.252 0.282036 8.748 0.282036 7.022 1.66952L2.022 5.69093C0.896003 6.59624 0.25 7.94369 0.25 9.38819V15.3823C0.25 17.9992 2.381 20.1289 5 20.1289H7.75V15.3823C7.75 14.1438 8.759 13.1355 10 13.1355C11.241 13.1355 12.25 14.1438 12.25 15.3823V20.1289H15C17.619 20.1289 19.75 18.0002 19.75 15.3823V9.38819C19.75 7.94369 19.104 6.59624 17.978 5.69093ZM18.25 15.3823C18.25 17.1719 16.792 18.6284 15 18.6284H13.75V15.3823C13.75 13.3166 12.068 11.6349 10 11.6349C7.932 11.6349 6.25 13.3166 6.25 15.3823V18.6284H5C3.208 18.6284 1.75 17.1719 1.75 15.3823V9.38819C1.75 8.40085 2.191 7.47955 2.961 6.86034L7.961 2.83893C9.143 1.8896 10.857 1.8896 12.038 2.83893L17.038 6.86034C17.808 7.47955 18.249 8.40085 18.249 9.38819V15.3823H18.25Z" fill="#242220"/>
</svg>
