<svg width="69" height="70" viewBox="0 0 69 70" fill="none" xmlns="http://www.w3.org/2000/svg">
<rect x="21" width="27" height="27" rx="13.5" fill="url(#paint0_linear_512_24667)"/>
<g filter="url(#filter0_d_512_24667)">
<path d="M38.0956 11.1603C38.053 11.1603 38.0168 11.1514 37.987 11.1338C37.9572 11.1162 37.9338 11.0853 37.9168 11.0413L37.5463 10.1424L36.6139 9.71946C36.5713 9.70183 36.5415 9.6776 36.5245 9.64676C36.5074 9.61591 36.4989 9.57846 36.4989 9.5344C36.4989 9.49034 36.5074 9.45289 36.5245 9.42205C36.5415 9.3912 36.5713 9.36697 36.6139 9.34935L37.5463 8.93958L37.9168 8.08039C37.9338 8.03633 37.9572 8.00549 37.987 7.98786C38.0168 7.97024 38.053 7.96143 38.0956 7.96143C38.1382 7.96143 38.1743 7.97024 38.2042 7.98786C38.234 8.00549 38.2574 8.03633 38.2744 8.08039L38.6448 8.93958L39.5773 9.34935C39.6199 9.36697 39.6497 9.3912 39.6667 9.42205C39.6837 9.45289 39.6922 9.49034 39.6922 9.5344C39.6922 9.57846 39.6837 9.61591 39.6667 9.64676C39.6497 9.6776 39.6199 9.70183 39.5773 9.71946L38.6448 10.1424L38.2744 11.0413C38.2574 11.0853 38.234 11.1162 38.2042 11.1338C38.1743 11.1514 38.1382 11.1603 38.0956 11.1603ZM38.0956 19.0383C38.0615 19.0383 38.0275 19.0295 37.9934 19.0119C37.9593 18.9943 37.9338 18.9634 37.9168 18.9194L37.5463 18.0602L36.6267 17.6504C36.5841 17.6328 36.5543 17.6086 36.5373 17.5777C36.5202 17.5469 36.5117 17.5094 36.5117 17.4654C36.5117 17.4213 36.5202 17.3839 36.5373 17.353C36.5543 17.3222 36.5841 17.2979 36.6267 17.2803L37.5463 16.8706L37.9168 15.9585C37.9338 15.9144 37.9572 15.8836 37.987 15.866C38.0168 15.8483 38.053 15.8395 38.0956 15.8395C38.1382 15.8395 38.1743 15.8483 38.2042 15.866C38.234 15.8836 38.2574 15.9144 38.2744 15.9585L38.6448 16.8706L39.5645 17.2803C39.6071 17.2979 39.6369 17.3222 39.6539 17.353C39.6709 17.3839 39.6795 17.4213 39.6795 17.4654C39.6795 17.5094 39.6709 17.5469 39.6539 17.5777C39.6369 17.6086 39.6071 17.6328 39.5645 17.6504L38.6448 18.0602L38.2744 18.9194C38.2574 18.9634 38.2318 18.9943 38.1978 19.0119C38.1637 19.0295 38.1296 19.0383 38.0956 19.0383ZM32.4881 16.7516C32.42 16.7516 32.354 16.7318 32.2902 16.6921C32.2263 16.6524 32.1773 16.5974 32.1433 16.5269L31.313 14.6895L29.5248 13.8568C29.4566 13.8215 29.4034 13.7709 29.3651 13.7048C29.3268 13.6387 29.3076 13.5704 29.3076 13.4999C29.3076 13.4294 29.3268 13.3611 29.3651 13.295C29.4034 13.2289 29.4566 13.1782 29.5248 13.143L31.313 12.3102L32.1433 10.4861C32.1773 10.4068 32.2263 10.3473 32.2902 10.3077C32.354 10.268 32.42 10.2482 32.4881 10.2482C32.5563 10.2482 32.6223 10.268 32.6861 10.3077C32.75 10.3473 32.799 10.4024 32.833 10.4729L33.6761 12.3102L35.4515 13.143C35.5282 13.1782 35.5856 13.2289 35.624 13.295C35.6623 13.3611 35.6814 13.4294 35.6814 13.4999C35.6814 13.5704 35.6623 13.6387 35.624 13.7048C35.5856 13.7709 35.5282 13.8215 35.4515 13.8568L33.6761 14.6895L32.833 16.5269C32.799 16.6062 32.75 16.6635 32.6861 16.6987C32.6223 16.734 32.5563 16.7516 32.4881 16.7516Z" fill="#1CCA72"/>
</g>
<defs>
<filter id="filter0_d_512_24667" x="0.957617" y="2.11143" width="67.0848" height="67.7771" filterUnits="userSpaceOnUse" color-interpolation-filters="sRGB">
<feFlood flood-opacity="0" result="BackgroundImageFix"/>
<feColorMatrix in="SourceAlpha" type="matrix" values="0 0 0 0 0 0 0 0 0 0 0 0 0 0 0 0 0 0 127 0" result="hardAlpha"/>
<feOffset dy="22.5"/>
<feGaussianBlur stdDeviation="14.175"/>
<feComposite in2="hardAlpha" operator="out"/>
<feColorMatrix type="matrix" values="0 0 0 0 0.262745 0 0 0 0 0.0941176 0 0 0 0 1 0 0 0 0.28 0"/>
<feBlend mode="normal" in2="BackgroundImageFix" result="effect1_dropShadow_512_24667"/>
<feBlend mode="normal" in="SourceGraphic" in2="effect1_dropShadow_512_24667" result="shape"/>
</filter>
<linearGradient id="paint0_linear_512_24667" x1="34.5" y1="0" x2="34.5" y2="27" gradientUnits="userSpaceOnUse">
<stop stop-color="#F1FCF6"/>
<stop offset="1" stop-color="#B9F1D3"/>
</linearGradient>
</defs>
</svg>
