<svg width="26" height="27" viewBox="0 0 26 27" fill="none" xmlns="http://www.w3.org/2000/svg">
<rect y="0.5" width="26" height="26" rx="13" fill="url(#paint0_linear_548_21000)"/>
<path d="M9.3673 9.3322C9.53424 8.62981 10.5134 8.62981 10.6803 9.3322L11.1397 11.2649C11.1993 11.5156 11.3912 11.7114 11.637 11.7722L13.5313 12.2409C14.2197 12.4112 14.2197 13.4101 13.5313 13.5805L11.637 14.0491C11.3912 14.1099 11.1993 14.3057 11.1397 14.5565L10.6803 16.4891C10.5134 17.1915 9.53424 17.1915 9.3673 16.4891L8.90796 14.5565C8.84836 14.3057 8.65645 14.1099 8.41065 14.0491L6.51634 13.5805C5.82789 13.4101 5.82789 12.4112 6.51634 12.2409L8.41065 11.7722C8.65645 11.7114 8.84836 11.5156 8.90796 11.2649L9.3673 9.3322Z" fill="#1CCA72"/>
<path d="M16.7816 15.0181C16.8843 14.5859 17.4869 14.5859 17.5896 15.0181L17.8723 16.2075C17.909 16.3618 18.0271 16.4823 18.1783 16.5197L19.3441 16.8081C19.7677 16.9129 19.7677 17.5276 19.3441 17.6325L18.1783 17.9209C18.0271 17.9583 17.909 18.0788 17.8723 18.2331L17.5896 19.4224C17.4869 19.8547 16.8843 19.8547 16.7816 19.4224L16.4989 18.2331C16.4623 18.0788 16.3442 17.9583 16.1929 17.9209L15.0272 17.6325C14.6035 17.5276 14.6035 16.9129 15.0272 16.8081L16.1929 16.5197C16.3442 16.4823 16.4623 16.3618 16.4989 16.2075L16.7816 15.0181Z" fill="#1CCA72"/>
<path d="M17.4601 7.94958C17.5275 7.66593 17.9229 7.66593 17.9903 7.94958L18.1759 8.73008C18.1999 8.83135 18.2774 8.91043 18.3767 8.93498L19.1417 9.12424C19.4197 9.19303 19.4197 9.59645 19.1417 9.66523L18.3767 9.85449C18.2774 9.87905 18.1999 9.95812 18.1759 10.0594L17.9903 10.8399C17.9229 11.1235 17.5275 11.1235 17.4601 10.8399L17.2746 10.0594C17.2505 9.95812 17.173 9.87905 17.0738 9.85449L16.3087 9.66523C16.0307 9.59645 16.0307 9.19303 16.3087 9.12424L17.0738 8.93498C17.173 8.91043 17.2505 8.83135 17.2746 8.73008L17.4601 7.94958Z" fill="#1CCA72"/>
<path fill-rule="evenodd" clip-rule="evenodd" d="M17.7252 8.08806L17.5738 8.72508C17.5133 8.97971 17.3184 9.17852 17.0689 9.24027L16.4445 9.39474L17.0689 9.54921C17.3184 9.61095 17.5133 9.80976 17.5738 10.0644L17.7252 10.7014L17.8766 10.0644C17.9371 9.80976 18.132 9.61095 18.3816 9.54921L19.006 9.39474L18.3816 9.24027C18.132 9.17852 17.9371 8.97971 17.8766 8.72508L17.7252 8.08806ZM18.0282 7.74313C17.9512 7.41896 17.4993 7.41896 17.4222 7.74313L17.2102 8.63513C17.1827 8.75087 17.0941 8.84124 16.9807 8.86931L16.1064 9.0856C15.7886 9.16421 15.7886 9.62526 16.1064 9.70387L16.9807 9.92017C17.0941 9.94823 17.1827 10.0386 17.2102 10.1543L17.4222 11.0463C17.4993 11.3705 17.9512 11.3705 18.0282 11.0463L18.2402 10.1543C18.2677 10.0386 18.3563 9.94823 18.4698 9.92017L19.3441 9.70387C19.6618 9.62526 19.6618 9.16421 19.3441 9.0856L18.4698 8.8693C18.3563 8.84124 18.2677 8.75087 18.2402 8.63513L18.0282 7.74313Z" fill="#1CCA72"/>
<defs>
<linearGradient id="paint0_linear_548_21000" x1="13" y1="0.5" x2="13" y2="26.5" gradientUnits="userSpaceOnUse">
<stop stop-color="#F1FCF6"/>
<stop offset="1" stop-color="#B9F1D3"/>
</linearGradient>
</defs>
</svg>
