<svg width="24" height="24" viewBox="0 0 24 24" fill="none" xmlns="http://www.w3.org/2000/svg">
<path d="M9.56036 5.76123H13.3146M9.56036 10.0517H16.5325M9.56036 14.3423H16.5325" stroke="#242220" stroke-width="1.39647" stroke-linecap="round" stroke-linejoin="round"/>
<path fill-rule="evenodd" clip-rule="evenodd" d="M22.3374 15.2672C22.4319 14.338 22.4319 13.1743 22.4319 11.7056L22.4319 8.67712C22.4322 7.55304 22.4323 6.82813 22.2367 6.14205C22.1295 5.76592 21.9794 5.40339 21.7892 5.06162C21.4424 4.43821 20.9297 3.92572 20.1347 3.13104L19.9674 2.96377C19.1727 2.16877 18.6602 1.65608 18.0368 1.30924C17.6951 1.11908 17.3325 0.968918 16.9564 0.861705C16.2703 0.666142 15.5454 0.66629 14.4213 0.666519L13.0464 0.666535V0.66886C12.0432 0.674876 11.1987 0.696435 10.4861 0.773643C9.47221 0.883486 8.63028 1.11364 7.90637 1.63959C7.47383 1.95385 7.09346 2.33423 6.7792 2.76677C6.44427 3.22776 6.22929 3.73662 6.08895 4.30725L5.20952 4.54289C2.49152 5.27118 0.87853 8.06496 1.60682 10.783L3.96656 19.5897C4.69485 22.3077 7.48862 23.9206 10.2066 23.1924L16.4231 21.5267C17.6104 21.2085 18.5868 20.4963 19.2493 19.5684C19.5752 19.4548 19.8799 19.3074 20.1675 19.1152C20.7239 18.7435 21.2015 18.2658 21.5732 17.7095C22.0378 17.0142 22.2405 16.2194 22.3374 15.2672ZM14.4342 2.27551L14.3031 2.27548C12.6923 2.2755 11.5458 2.27719 10.6594 2.37323C9.78241 2.46824 9.25601 2.64779 8.85209 2.94126C8.55614 3.15628 8.29588 3.41653 8.08086 3.71248C7.7874 4.1164 7.60784 4.6428 7.51283 5.51975C7.41619 6.41176 7.41509 7.5672 7.41509 9.19395V11.661C7.41509 13.1842 7.41606 14.2661 7.50134 15.1044C7.58526 15.9293 7.74409 16.4288 8.00259 16.8156C8.25693 17.1963 8.58375 17.5231 8.96439 17.7774C9.35126 18.0359 9.85072 18.1948 10.6756 18.2787C11.514 18.364 12.5958 18.3649 14.119 18.3649C15.6422 18.3649 16.7241 18.364 17.5624 18.2787C18.3873 18.1948 18.8868 18.0359 19.2737 17.7774C19.6543 17.5231 19.9811 17.1963 20.2355 16.8156C20.494 16.4288 20.6528 15.9293 20.7367 15.1044C20.822 14.2661 20.823 13.1842 20.823 11.661V8.97942C20.823 8.45104 20.8213 8.13567 20.7909 7.90965C20.7769 7.80608 20.7605 7.7542 20.7509 7.73084C20.7487 7.72543 20.747 7.72187 20.7459 7.7198L20.7444 7.71719L20.7418 7.71571C20.7397 7.71463 20.7362 7.7129 20.7308 7.71067C20.7074 7.70106 20.6555 7.68465 20.552 7.67073C20.3259 7.64034 20.0106 7.63863 19.4822 7.63863L18.3615 7.63864C17.8973 7.63869 17.4716 7.63874 17.1254 7.59219C16.7441 7.54092 16.3411 7.42031 16.0096 7.08884C15.6781 6.75737 15.5575 6.35436 15.5063 5.97306C15.4597 5.6268 15.4598 5.20115 15.4598 4.7369L15.4598 3.40174C15.4598 2.98162 15.4587 2.73114 15.4389 2.54818C15.4272 2.44056 15.4124 2.39647 15.4069 2.38369C15.3913 2.36266 15.3726 2.34403 15.3516 2.32841C15.3388 2.3229 15.2947 2.30807 15.1871 2.29641C15.0193 2.27822 14.7946 2.27579 14.4342 2.27551ZM16.0375 19.9641C15.4752 19.9739 14.853 19.9739 14.1636 19.9739H14.0744C12.6058 19.9739 11.4421 19.9739 10.5128 19.8794C9.56067 19.7825 8.76581 19.5798 8.07051 19.1152C7.51418 18.7435 7.03653 18.2658 6.6648 17.7095C6.20022 17.0142 5.99751 16.2194 5.90066 15.2672C5.80612 14.338 5.80613 13.1743 5.80614 11.7056V9.14623C5.80613 7.92216 5.80613 6.8965 5.85705 6.03509L5.62595 6.09701C3.76626 6.59532 2.66264 8.50685 3.16094 10.3665L5.52069 19.1732C6.01899 21.0329 7.93052 22.1365 9.7902 21.6382L16.0067 19.9725C16.017 19.9698 16.0273 19.967 16.0375 19.9641ZM20.3832 5.84386C20.4206 5.9111 20.4558 5.9795 20.4886 6.04897C20.202 6.02961 19.8768 6.02964 19.5302 6.02968L18.4095 6.02969C17.8812 6.02969 17.5658 6.02798 17.3398 5.99759C17.2362 5.98366 17.1843 5.96726 17.161 5.95765C17.1556 5.95542 17.152 5.95369 17.1499 5.95261L17.1473 5.95113L17.1458 5.94852C17.1448 5.94645 17.143 5.94289 17.1408 5.93748C17.1312 5.91412 17.1148 5.86224 17.1009 5.75867C17.0705 5.53265 17.0688 5.21729 17.0688 4.6889L17.0688 3.36389C17.0688 3.09377 17.0688 2.83987 17.057 2.61339C17.1239 2.6452 17.1898 2.67916 17.2546 2.71522C17.6574 2.93935 18.0062 3.27798 18.9133 4.18512C19.8205 5.09225 20.1591 5.44102 20.3832 5.84386Z" fill="#242220"/>
</svg>
