<svg width="48" height="48" viewBox="0 0 48 48" fill="none" xmlns="http://www.w3.org/2000/svg">
<circle cx="24" cy="24" r="24" fill="#464242"/>
<path d="M15.9152 19.7664L16.7074 19.9711L15.9152 19.7664ZM19.7332 16.1729L19.8873 16.9764L19.7332 16.1729ZM21.9855 25.6838L21.7547 24.8988L21.9855 25.6838ZM23.1928 26.8911L22.4079 26.6603L23.1928 26.8911ZM29.1102 32.9614L29.3148 33.7536L29.1102 32.9614ZM32.7037 29.1435L33.5073 29.2976L33.5073 29.2976L32.7037 29.1435ZM34.6178 19.1627L33.8143 19.0085L33.8143 19.0085L34.6178 19.1627ZM29.7139 14.2588L29.5598 13.4552L29.7139 14.2588ZM17.461 30.2585C17.1415 30.578 17.1415 31.0961 17.461 31.4156C17.7805 31.7351 18.2986 31.7351 18.6181 31.4156L17.461 30.2585ZM20.1609 29.8728C20.4804 29.5533 20.4804 29.0353 20.1609 28.7157C19.8414 28.3962 19.3233 28.3962 19.0038 28.7157L20.1609 29.8728ZM18.2324 34.1155C17.9129 34.435 17.9129 34.953 18.2324 35.2726C18.5519 35.5921 19.07 35.5921 19.3895 35.2726L18.2324 34.1155ZM20.9323 33.7298C21.2518 33.4103 21.2518 32.8922 20.9323 32.5727C20.6128 32.2532 20.0947 32.2532 19.7752 32.5727L20.9323 33.7298ZM13.6041 29.4871C13.2846 29.8067 13.2846 30.3247 13.6041 30.6442C13.9236 30.9637 14.4416 30.9637 14.7612 30.6442L13.6041 29.4871ZM16.3039 29.1014C16.6235 28.7819 16.6235 28.2639 16.3039 27.9444C15.9844 27.6248 15.4664 27.6248 15.1469 27.9444L16.3039 29.1014ZM33.8143 19.0085L31.9002 28.9893L33.5073 29.2976L35.4214 19.3168L33.8143 19.0085ZM19.8873 16.9764L29.868 15.0623L29.5598 13.4552L19.5791 15.3694L19.8873 16.9764ZM16.7074 19.9711C17.1017 18.4444 18.3438 17.2725 19.8873 16.9764L19.5791 15.3694C17.4094 15.7855 15.6743 17.4278 15.123 19.5618L16.7074 19.9711ZM21.7547 24.8988C18.752 25.7818 15.9191 23.0225 16.7074 19.9711L15.123 19.5618C14.0224 23.8224 17.9737 27.7164 22.2163 26.4687L21.7547 24.8988ZM23.9778 27.1219C24.3776 25.7622 23.1144 24.499 21.7547 24.8988L22.2163 26.4687C22.3335 26.4342 22.4424 26.5431 22.4079 26.6603L23.9778 27.1219ZM28.9056 32.1693C25.8541 32.9575 23.0948 30.1246 23.9778 27.1219L22.4079 26.6603C21.1603 30.9029 25.0542 34.8543 29.3148 33.7536L28.9056 32.1693ZM31.9002 28.9893C31.6042 30.5329 30.4322 31.7749 28.9056 32.1693L29.3148 33.7536C31.4488 33.2024 33.0912 31.4672 33.5073 29.2976L31.9002 28.9893ZM35.4214 19.3168C36.0881 15.8405 33.0361 12.7885 29.5598 13.4552L29.868 15.0623C32.2084 14.6134 34.2632 16.6682 33.8143 19.0085L35.4214 19.3168ZM18.6181 31.4156L20.1609 29.8728L19.0038 28.7157L17.461 30.2585L18.6181 31.4156ZM19.3895 35.2726L20.9323 33.7298L19.7752 32.5727L18.2324 34.1155L19.3895 35.2726ZM14.7612 30.6442L16.3039 29.1014L15.1469 27.9444L13.6041 29.4871L14.7612 30.6442Z" fill="white"/>
</svg>
