<svg width="32" height="32" viewBox="0 0 32 32" fill="none" xmlns="http://www.w3.org/2000/svg">
<rect width="32" height="32" rx="16" fill="#F2F0F0"/>
<path d="M23.5625 15.7711H23.4342C22.9071 13.4152 20.8033 11.6461 18.2917 11.6461H16.6875V11.0594C17.485 10.7752 18.0625 10.019 18.0625 9.12522C18.0625 7.98856 17.1367 7.06272 16 7.06272C14.8633 7.06272 13.9375 7.98856 13.9375 9.12522C13.9375 10.019 14.515 10.7752 15.3125 11.0594V11.6461H13.7083C11.1967 11.6461 9.09292 13.4152 8.56583 15.7711H8.4375C7.68125 15.7711 7.0625 16.3898 7.0625 17.1461V18.5211C7.0625 19.2773 7.68125 19.8961 8.4375 19.8961H8.68958C9.23042 21.5827 10.5963 22.8936 12.3104 23.3702C12.1821 23.6406 12.1042 23.934 12.1042 24.2502C12.1042 24.6306 12.4113 24.9377 12.7917 24.9377H19.2083C19.5887 24.9377 19.8958 24.6306 19.8958 24.2502C19.8958 23.934 19.8179 23.6361 19.6896 23.3702C21.4038 22.8981 22.7696 21.5827 23.3104 19.8961H23.5625C24.3188 19.8961 24.9375 19.2773 24.9375 18.5211V17.1461C24.9375 16.3898 24.3188 15.7711 23.5625 15.7711ZM16 8.43772C16.3804 8.43772 16.6875 8.74481 16.6875 9.12522C16.6875 9.50564 16.3804 9.81272 16 9.81272C15.6196 9.81272 15.3125 9.50564 15.3125 9.12522C15.3125 8.74481 15.6196 8.43772 16 8.43772ZM18.2917 22.1877H13.7083C11.5588 22.1877 9.8125 20.4415 9.8125 18.2919V16.9169C9.8125 14.7673 11.5588 13.0211 13.7083 13.0211H18.2917C20.4412 13.0211 22.1875 14.7673 22.1875 16.9169V18.2919C22.1875 20.4415 20.4412 22.1877 18.2917 22.1877Z" fill="#5F5B5B"/>
<path d="M13.4792 14.8544C12.7229 14.8544 12.1042 15.4731 12.1042 16.2294V17.6044C12.1042 18.3606 12.7229 18.9794 13.4792 18.9794C14.2354 18.9794 14.8542 18.3606 14.8542 17.6044V16.2294C14.8542 15.4731 14.2354 14.8544 13.4792 14.8544Z" fill="#5F5B5B"/>
<path d="M18.5208 14.8544C17.7646 14.8544 17.1458 15.4731 17.1458 16.2294V17.6044C17.1458 18.3606 17.7646 18.9794 18.5208 18.9794C19.2771 18.9794 19.8958 18.3606 19.8958 17.6044V16.2294C19.8958 15.4731 19.2771 14.8544 18.5208 14.8544Z" fill="#5F5B5B"/>
<path d="M11.2013 8.40106L12.5763 8.85939C12.6496 8.88231 12.7229 8.89606 12.7917 8.89606C13.0804 8.89606 13.3463 8.71272 13.4425 8.42397C13.5617 8.06189 13.3692 7.67231 13.0071 7.55314L11.6321 7.09481C11.2746 6.97564 10.885 7.16814 10.7613 7.53022C10.6375 7.89231 10.8346 8.28189 11.1967 8.40106H11.2013Z" fill="#5F5B5B"/>
<path d="M11.4167 11.1877C11.49 11.1877 11.5633 11.1786 11.6321 11.1511L13.0071 10.6927C13.3692 10.5736 13.5617 10.184 13.4425 9.82189C13.3233 9.45981 12.9338 9.26731 12.5717 9.38647L11.1967 9.84481C10.8346 9.96397 10.6421 10.3536 10.7613 10.7156C10.8575 11.0044 11.1233 11.1877 11.4121 11.1877H11.4167Z" fill="#5F5B5B"/>
<path d="M19.2083 8.89606C19.2817 8.89606 19.355 8.88689 19.4237 8.85939L20.7988 8.40106C21.1608 8.28189 21.3533 7.89231 21.2342 7.53022C21.115 7.16814 20.7254 6.97564 20.3633 7.09481L18.9883 7.55314C18.6263 7.67231 18.4338 8.06189 18.5529 8.42397C18.6492 8.71272 18.915 8.89606 19.2038 8.89606H19.2083Z" fill="#5F5B5B"/>
<path d="M18.9929 10.6927L20.3679 11.1511C20.4412 11.174 20.5146 11.1877 20.5833 11.1877C20.8721 11.1877 21.1379 11.0044 21.2342 10.7156C21.3533 10.3536 21.1608 9.96397 20.7988 9.84481L19.4237 9.38647C19.0662 9.26731 18.6721 9.45981 18.5529 9.82189C18.4338 10.184 18.6263 10.5736 18.9883 10.6927H18.9929Z" fill="#5F5B5B"/>
</svg>
