<svg width="25" height="24" viewBox="0 0 25 24" fill="none" xmlns="http://www.w3.org/2000/svg">
<path d="M12.5 15.7495C15.119 15.7495 17.25 13.6185 17.25 10.9995V6.99951C17.25 4.38051 15.119 2.24951 12.5 2.24951C9.881 2.24951 7.75 4.38051 7.75 6.99951V10.9995C7.75 13.6185 9.881 15.7495 12.5 15.7495ZM9.25 6.99951C9.25 5.20751 10.708 3.74951 12.5 3.74951C14.292 3.74951 15.75 5.20751 15.75 6.99951V10.9995C15.75 12.7915 14.292 14.2495 12.5 14.2495C10.708 14.2495 9.25 12.7915 9.25 10.9995V6.99951ZM13.25 18.7115V20.2495H16.5C16.914 20.2495 17.25 20.5855 17.25 20.9995C17.25 21.4135 16.914 21.7495 16.5 21.7495H8.5C8.086 21.7495 7.75 21.4135 7.75 20.9995C7.75 20.5855 8.086 20.2495 8.5 20.2495H11.75V18.7115C7.827 18.3325 4.75 15.0195 4.75 10.9995C4.75 10.5855 5.086 10.2495 5.5 10.2495C5.914 10.2495 6.25 10.5855 6.25 10.9995C6.25 14.4455 9.054 17.2495 12.5 17.2495C15.946 17.2495 18.75 14.4455 18.75 10.9995C18.75 10.5855 19.086 10.2495 19.5 10.2495C19.914 10.2495 20.25 10.5855 20.25 10.9995C20.25 15.0195 17.173 18.3325 13.25 18.7115Z" fill="#242220"/>
</svg>
