<svg width="34" height="34" viewBox="0 0 34 34" fill="none" xmlns="http://www.w3.org/2000/svg">
<rect x="0.5" y="0.5" width="33" height="33" rx="16.5" stroke="#464242"/>
<path d="M17 19.8125C18.9642 19.8125 20.5625 18.2142 20.5625 16.25V13.25C20.5625 11.2858 18.9642 9.6875 17 9.6875C15.0357 9.6875 13.4375 11.2858 13.4375 13.25V16.25C13.4375 18.2142 15.0357 19.8125 17 19.8125ZM14.5625 13.25C14.5625 11.906 15.656 10.8125 17 10.8125C18.344 10.8125 19.4375 11.906 19.4375 13.25V16.25C19.4375 17.594 18.344 18.6875 17 18.6875C15.656 18.6875 14.5625 17.594 14.5625 16.25V13.25ZM17.5625 22.034V23.1875H20C20.3105 23.1875 20.5625 23.4395 20.5625 23.75C20.5625 24.0605 20.3105 24.3125 20 24.3125H14C13.6895 24.3125 13.4375 24.0605 13.4375 23.75C13.4375 23.4395 13.6895 23.1875 14 23.1875H16.4375V22.034C13.4952 21.7498 11.1875 19.265 11.1875 16.25C11.1875 15.9395 11.4395 15.6875 11.75 15.6875C12.0605 15.6875 12.3125 15.9395 12.3125 16.25C12.3125 18.8345 14.4155 20.9375 17 20.9375C19.5845 20.9375 21.6875 18.8345 21.6875 16.25C21.6875 15.9395 21.9395 15.6875 22.25 15.6875C22.5605 15.6875 22.8125 15.9395 22.8125 16.25C22.8125 19.265 20.5048 21.7498 17.5625 22.034Z" fill="#464242"/>
</svg>
